<svg xmlns="http://www.w3.org/2000/svg" viewBox="0 0 64 64" role="img" aria-label="Helderberg Social">
  <defs>
    <linearGradient id="sky" x1="0" y1="0" x2="0" y2="1"><stop offset="0" stop-color="#0f4c5c"/><stop offset="1" stop-color="#2a93a5"/></linearGradient>
    <linearGradient id="sun" x1="0" y1="0" x2="0" y2="1"><stop offset="0" stop-color="#ffc27a"/><stop offset="1" stop-color="#f26b3a"/></linearGradient>
    <linearGradient id="sea" x1="0" y1="0" x2="0" y2="1"><stop offset="0" stop-color="#9fe0ec"/><stop offset="1" stop-color="#5ec2d6"/></linearGradient>
  </defs>
  <rect width="64" height="64" rx="16" fill="url(#sky)"/>
  <circle cx="46" cy="21" r="8" fill="url(#sun)"/>
  <path d="M0 45 L9 40 L17 31 L25 19 L31 27 L37 24 L45 34 L54 39 L64 43 V64 H0 Z" fill="#0a2e38"/>
  <path d="M0 50 C5 47 11 47 16 50 C21 53 27 53 32 50 C37 47 43 47 48 50 C53 53 59 53 64 50 V64 H0 Z" fill="url(#sea)"/>
  <path d="M0 56 C5 53.5 11 53.5 16 56 C21 58.5 27 58.5 32 56 C37 53.5 43 53.5 48 56 C53 58.5 59 58.5 64 56 V64 H0 Z" fill="#2a93a5" opacity=".55"/>
</svg>
